<svg viewBox="0 0 24 24" fill="none" xmlns="http://www.w3.org/2000/svg">
  <path d="M.045 18.02c.072-.116.187-.18.29-.18.072 0 .145.029.217.087 1.108.87 2.505 1.394 4.045 1.394 1.74 0 3.264-.609 4.566-1.826.145-.116.29-.145.434-.058.145.087.217.232.145.406-.725 1.02-1.685 1.831-2.79 2.354-1.162.552-2.402.783-3.697.783-1.828 0-3.595-.667-4.96-1.86-.145-.145-.145-.377-.25-.522zm-.145-4.45c.072-.116.187-.18.29-.18.072 0 .145.029.217.087 2.014 1.569 4.769 2.354 7.379 2.354 2.898 0 5.51-.87 7.61-2.412.145-.116.29-.145.434-.058.145.087.217.232.145.406-1.162 1.597-2.898 2.847-4.914 3.632-2.014.783-4.247 1.191-6.48 1.191-3.016 0-5.943-.87-8.246-2.44-.145-.145-.145-.377-.29-.522z" fill="#FF9900"/>
  <path d="M20.8 14.624c-.362-.058-.725-.029-1.088.058-2.014.464-4.14.696-6.265.696-2.61 0-5.22-.348-7.685-1.046-.29-.087-.58-.029-.725.203-.145.232-.087.522.145.696 2.61 1.917 5.8 2.934 9.105 2.934 2.61 0 5.22-.58 7.54-1.684.29-.145.435-.435.29-.754-.145-.29-.435-.464-.725-.406z" fill="#146EB4"/>
</svg>